<svg width="24" height="24" viewBox="0 0 24 24" fill="none" xmlns="http://www.w3.org/2000/svg">
<path d="M12.897 21.968C12.367 21.97 11.857 21.758 11.483 21.382L3.64601 13.547C3.44168 13.3434 3.284 13.0978 3.18386 12.8272C3.08372 12.5567 3.04351 12.2676 3.06601 11.98L3.56601 5.41401C3.60055 4.93599 3.80653 4.48652 4.14607 4.14827C4.4856 3.81002 4.93586 3.60574 5.41401 3.57301L11.98 3.07301C12.032 3.06201 12.083 3.06201 12.135 3.06201C12.665 3.06201 13.172 3.27201 13.545 3.64801L21.383 11.482C21.5688 11.6677 21.7162 11.8883 21.8168 12.131C21.9173 12.3737 21.9691 12.6338 21.9691 12.8965C21.9691 13.1592 21.9173 13.4194 21.8168 13.6621C21.7162 13.9048 21.5688 14.1253 21.383 14.311L14.311 21.382C14.1258 21.5683 13.9054 21.716 13.6627 21.8166C13.42 21.9172 13.1597 21.9687 12.897 21.968ZM8.65401 6.65401C8.32512 6.65411 8.00132 6.73531 7.71131 6.89042C7.4213 7.04554 7.17401 7.26978 6.99136 7.54329C6.80871 7.8168 6.69632 8.13113 6.66416 8.45845C6.632 8.78576 6.68106 9.11595 6.80699 9.41978C6.93291 9.72361 7.13183 9.99169 7.3861 10.2003C7.64038 10.4089 7.94218 10.5516 8.26476 10.6157C8.58734 10.6798 8.92076 10.6633 9.23547 10.5678C9.55018 10.4723 9.83648 10.3006 10.069 10.068L10.076 10.062L10.083 10.055L10.075 10.062C10.353 9.78158 10.5417 9.42513 10.6175 9.03759C10.6932 8.65006 10.6525 8.24877 10.5006 7.88432C10.3486 7.51986 10.0922 7.20855 9.76355 6.98961C9.43494 6.77066 9.04887 6.65389 8.65401 6.65401Z" fill="#9F9F9F"/>
</svg>
