<svg width="252" height="54" viewBox="0 0 252 54" fill="none" xmlns="http://www.w3.org/2000/svg">
<path d="M23.3333 28.0001V22.1667H25.6666V29.1667H23.3333M23.3333 33.8334H25.6666V31.5001H23.3333M11.6666 29.1667C14.7816 29.1667 20.9999 30.7301 20.9999 33.8334V37.3334H2.33325V33.8334C2.33325 30.7301 8.55159 29.1667 11.6666 29.1667ZM11.6666 18.6667C12.9043 18.6667 14.0912 19.1584 14.9664 20.0336C15.8416 20.9088 16.3333 22.0957 16.3333 23.3334C16.3333 24.5711 15.8416 25.7581 14.9664 26.6332C14.0912 27.5084 12.9043 28.0001 11.6666 28.0001C10.4289 28.0001 9.24192 27.5084 8.36675 26.6332C7.49158 25.7581 6.99992 24.5711 6.99992 23.3334C6.99992 22.0957 7.49158 20.9088 8.36675 20.0336C9.24192 19.1584 10.4289 18.6667 11.6666 18.6667ZM11.6666 31.3834C8.20159 31.3834 4.54992 33.0867 4.54992 33.8334V35.1167H18.7833V33.8334C18.7833 33.0867 15.1316 31.3834 11.6666 31.3834ZM11.6666 20.8834C11.0168 20.8834 10.3936 21.1415 9.93417 21.601C9.47471 22.0605 9.21659 22.6836 9.21659 23.3334C9.21659 23.9832 9.47471 24.6064 9.93417 25.0658C10.3936 25.5253 11.0168 25.7834 11.6666 25.7834C12.3164 25.7834 12.9395 25.5253 13.399 25.0658C13.8585 24.6064 14.1166 23.9832 14.1166 23.3334C14.1166 22.6836 13.8585 22.0605 13.399 21.601C12.9395 21.1415 12.3164 20.8834 11.6666 20.8834Z" fill="black"/>
<path d="M94.4999 38.4999L89.2663 33.2569M92.1666 26.2499C92.1666 28.88 91.1218 31.4023 89.2621 33.2621C87.4023 35.1218 84.88 36.1666 82.2499 36.1666C79.6199 36.1666 77.0975 35.1218 75.2378 33.2621C73.378 31.4023 72.3333 28.88 72.3333 26.2499C72.3333 23.6199 73.378 21.0975 75.2378 19.2378C77.0975 17.378 79.6199 16.3333 82.2499 16.3333C84.88 16.3333 87.4023 17.378 89.2621 19.2378C91.1218 21.0975 92.1666 23.6199 92.1666 26.2499V26.2499Z" stroke="black" stroke-width="2" stroke-linecap="round"/>
<path d="M148.167 17.5C144.945 17.5 142.333 20.0853 142.333 23.275C142.333 25.8498 143.354 31.9608 153.403 38.1383C153.583 38.2479 153.789 38.3058 154 38.3058C154.211 38.3058 154.417 38.2479 154.597 38.1383C164.646 31.9608 165.667 25.8498 165.667 23.275C165.667 20.0853 163.054 17.5 159.833 17.5C156.612 17.5 154 21 154 21C154 21 151.388 17.5 148.167 17.5Z" stroke="black" stroke-width="2" stroke-linecap="round" stroke-linejoin="round"/>
<rect x="201" width="51" height="54" fill="#D9D9D9"/>
<path d="M238.235 33.1926H221.952L222.77 31.5273L236.354 31.5027C236.814 31.5027 237.207 31.1746 237.289 30.7207L239.171 20.1906C239.22 19.9145 239.146 19.6301 238.966 19.4141C238.876 19.3078 238.765 19.2221 238.639 19.1631C238.514 19.1041 238.377 19.0731 238.238 19.0723L220.957 19.0148L220.809 18.3203C220.716 17.8773 220.317 17.5547 219.863 17.5547H215.639C215.383 17.5547 215.137 17.6564 214.956 17.8374C214.775 18.0184 214.673 18.2639 214.673 18.5199C214.673 18.7759 214.775 19.0214 214.956 19.2024C215.137 19.3835 215.383 19.4852 215.639 19.4852H219.081L219.726 22.5531L221.315 30.2449L219.27 33.5836C219.164 33.727 219.1 33.8972 219.085 34.075C219.071 34.2528 219.106 34.4312 219.188 34.5898C219.352 34.9152 219.683 35.1203 220.049 35.1203H221.766C221.4 35.6065 221.202 36.1988 221.203 36.8074C221.203 38.3551 222.461 39.6129 224.008 39.6129C225.556 39.6129 226.814 38.3551 226.814 36.8074C226.814 36.1977 226.612 35.6043 226.251 35.1203H230.656C230.29 35.6065 230.092 36.1988 230.092 36.8074C230.092 38.3551 231.35 39.6129 232.898 39.6129C234.446 39.6129 235.703 38.3551 235.703 36.8074C235.703 36.1977 235.501 35.6043 235.14 35.1203H238.238C238.769 35.1203 239.203 34.6883 239.203 34.1551C239.202 33.8994 239.099 33.6546 238.918 33.4743C238.736 33.294 238.491 33.1927 238.235 33.1926ZM221.359 20.918L237.103 20.9699L235.561 29.6051L223.194 29.627L221.359 20.918ZM224.008 37.6715C223.533 37.6715 223.144 37.2832 223.144 36.8074C223.144 36.3316 223.533 35.9434 224.008 35.9434C224.484 35.9434 224.873 36.3316 224.873 36.8074C224.873 37.0366 224.782 37.2564 224.619 37.4184C224.457 37.5805 224.238 37.6715 224.008 37.6715ZM232.898 37.6715C232.422 37.6715 232.034 37.2832 232.034 36.8074C232.034 36.3316 232.422 35.9434 232.898 35.9434C233.374 35.9434 233.762 36.3316 233.762 36.8074C233.762 37.0366 233.671 37.2564 233.509 37.4184C233.347 37.5805 233.127 37.6715 232.898 37.6715Z" fill="black"/>
</svg>
