<svg width="121" height="20" viewBox="0 0 121 20" fill="none" xmlns="http://www.w3.org/2000/svg">
<path d="M10 1L13 7L19 7.75L14.88 12.37L16 19L10 16L4 19L5.13 12.37L1 7.75L7 7L10 1Z" fill="#FFDA5B"/>
<path d="M36 1L39 7L45 7.75L40.88 12.37L42 19L36 16L30 19L31.13 12.37L27 7.75L33 7L36 1Z" fill="#FFDA5B"/>
<path d="M62 1L65 7L71 7.75L66.88 12.37L68 19L62 16L56 19L57.13 12.37L53 7.75L59 7L62 1Z" fill="#FFDA5B"/>
<path d="M85 1L88 7L94 7.75L89.88 12.37L91 19L85 16L79 19L80.13 12.37L76 7.75L82 7L85 1Z" fill="#FFDA5B"/>
<path d="M108.156 7.0125L101.8 7.9375L106.4 12.4188L105.313 18.75L111 15.7625V1.25L108.156 7.0125Z" fill="#FFDA5B"/>
</svg>
