<svg width="22" height="22" viewBox="0 0 22 22" fill="none" xmlns="http://www.w3.org/2000/svg">
<path d="M17.4168 3.66671H15.5835V2.75004C15.5835 2.50693 15.4869 2.27377 15.315 2.10186C15.1431 1.92995 14.9099 1.83337 14.6668 1.83337C14.4237 1.83337 14.1906 1.92995 14.0186 2.10186C13.8467 2.27377 13.7502 2.50693 13.7502 2.75004V3.66671H8.25016V2.75004C8.25016 2.50693 8.15359 2.27377 7.98168 2.10186C7.80977 1.92995 7.57661 1.83337 7.3335 1.83337C7.09038 1.83337 6.85722 1.92995 6.68531 2.10186C6.51341 2.27377 6.41683 2.50693 6.41683 2.75004V3.66671H4.5835C3.85415 3.66671 3.15468 3.95644 2.63895 4.47216C2.12323 4.98789 1.8335 5.68736 1.8335 6.41671V17.4167C1.8335 18.1461 2.12323 18.8455 2.63895 19.3612C3.15468 19.877 3.85415 20.1667 4.5835 20.1667H17.4168C18.1462 20.1667 18.8456 19.877 19.3614 19.3612C19.8771 18.8455 20.1668 18.1461 20.1668 17.4167V6.41671C20.1668 5.68736 19.8771 4.98789 19.3614 4.47216C18.8456 3.95644 18.1462 3.66671 17.4168 3.66671ZM18.3335 17.4167C18.3335 17.6598 18.2369 17.893 18.065 18.0649C17.8931 18.2368 17.6599 18.3334 17.4168 18.3334H4.5835C4.34038 18.3334 4.10722 18.2368 3.93531 18.0649C3.76341 17.893 3.66683 17.6598 3.66683 17.4167V11H18.3335V17.4167ZM18.3335 9.16671H3.66683V6.41671C3.66683 6.17359 3.76341 5.94043 3.93531 5.76853C4.10722 5.59662 4.34038 5.50004 4.5835 5.50004H6.41683V6.41671C6.41683 6.65982 6.51341 6.89298 6.68531 7.06489C6.85722 7.2368 7.09038 7.33337 7.3335 7.33337C7.57661 7.33337 7.80977 7.2368 7.98168 7.06489C8.15359 6.89298 8.25016 6.65982 8.25016 6.41671V5.50004H13.7502V6.41671C13.7502 6.65982 13.8467 6.89298 14.0186 7.06489C14.1906 7.2368 14.4237 7.33337 14.6668 7.33337C14.9099 7.33337 15.1431 7.2368 15.315 7.06489C15.4869 6.89298 15.5835 6.65982 15.5835 6.41671V5.50004H17.4168C17.6599 5.50004 17.8931 5.59662 18.065 5.76853C18.2369 5.94043 18.3335 6.17359 18.3335 6.41671V9.16671Z" fill="black"/>
</svg>
