<svg width="22" height="23" viewBox="0 0 22 23" fill="none" xmlns="http://www.w3.org/2000/svg">
<path d="M11 0.73291C8.08369 0.735577 5.28779 1.6346 3.22564 3.23277C1.16348 4.83094 0.00345217 6.99776 1.17029e-05 9.25791C-0.00348119 11.1049 0.774992 12.9018 2.21601 14.3729C2.21601 14.3729 2.51601 14.679 2.56501 14.7232L11 22.4329L19.439 14.7193C19.483 14.6783 19.784 14.3729 19.784 14.3729L19.785 14.3706C21.2253 12.9001 22.0034 11.1041 22 9.25791C21.9966 6.99776 20.8365 4.83094 18.7744 3.23277C16.7122 1.6346 13.9163 0.735577 11 0.73291ZM11 12.3579C10.2089 12.3579 9.43553 12.1761 8.77773 11.8355C8.11993 11.4948 7.60724 11.0107 7.30449 10.4442C7.00174 9.87778 6.92253 9.25447 7.07687 8.65313C7.23121 8.05179 7.61217 7.49942 8.17158 7.06588C8.73099 6.63234 9.44373 6.33709 10.2197 6.21748C10.9956 6.09786 11.7998 6.15925 12.5307 6.39388C13.2616 6.62852 13.8864 7.02585 14.3259 7.53564C14.7654 8.04544 15 8.64479 15 9.25791C14.9987 10.0798 14.5768 10.8677 13.827 11.4488C13.0771 12.0299 12.0605 12.3569 11 12.3579Z" fill="black"/>
</svg>
